<svg width="21" height="21" viewBox="0 0 21 21" fill="none" xmlns="http://www.w3.org/2000/svg">
<path d="M17.1956 5.42721C17.4365 5.65489 17.577 5.9689 17.5864 6.30019C17.5958 6.63149 17.4732 6.95294 17.2456 7.19388L10.1623 14.6939C10.0475 14.8152 9.90955 14.9123 9.75659 14.9794C9.60364 15.0465 9.43878 15.0823 9.27175 15.0847C9.10473 15.087 8.93894 15.0558 8.78417 14.993C8.62939 14.9302 8.48878 14.837 8.37064 14.7189L4.62064 10.9689C4.39984 10.7319 4.27964 10.4185 4.28535 10.0947C4.29106 9.77084 4.42225 9.46186 4.65127 9.23284C4.88029 9.00382 5.18927 8.87263 5.5131 8.86692C5.83694 8.86121 6.15035 8.98141 6.38731 9.20221L9.22898 12.0422L15.429 5.47721C15.6567 5.23637 15.9707 5.09581 16.302 5.08644C16.6332 5.07706 16.9547 5.19964 17.1956 5.42721Z" fill="white"/>
</svg>
