<svg width="28" height="28" viewBox="0 0 28 28" fill="none" xmlns="http://www.w3.org/2000/svg">
<path d="M3.79029 2.77319L24.8603 12.8502C25.0733 12.9519 25.2531 13.1118 25.379 13.3114C25.5049 13.511 25.5717 13.7422 25.5717 13.9782C25.5717 14.2142 25.5049 14.4454 25.379 14.645C25.2531 14.8446 25.0733 15.0045 24.8603 15.1062L3.79029 25.1832C3.57429 25.2866 3.33312 25.3259 3.09547 25.2962C2.85782 25.2665 2.63369 25.1692 2.44976 25.0158C2.26583 24.8625 2.12983 24.6595 2.05794 24.431C1.98606 24.2026 1.98132 23.9583 2.04429 23.7272L4.15229 15.9992C4.1781 15.9045 4.23121 15.8195 4.30501 15.7547C4.3788 15.69 4.47002 15.6484 4.56729 15.6352L14.7773 14.2482C14.82 14.2421 14.8604 14.2251 14.8945 14.1988C14.9287 14.1726 14.9555 14.1379 14.9723 14.0982L14.9903 14.0362C14.9982 13.9804 14.987 13.9235 14.9585 13.8748C14.93 13.8262 14.8858 13.7886 14.8333 13.7682L14.7783 13.7532L4.57829 12.3662C4.4812 12.3528 4.3902 12.3111 4.3166 12.2464C4.24299 12.1817 4.19003 12.0968 4.16429 12.0022L2.04429 4.23019C1.98107 3.99905 1.98561 3.75461 2.05739 3.52599C2.12916 3.29736 2.26514 3.09419 2.44912 2.94066C2.6331 2.78713 2.85734 2.68971 3.09512 2.66002C3.3329 2.63033 3.5742 2.66961 3.79029 2.77319V2.77319Z" fill="white"/>
</svg>
