<svg width="152" height="30" viewBox="0 0 152 30" fill="none" xmlns="http://www.w3.org/2000/svg">
<path d="M15 1.0198e-07L17.7704 7.38849L24.6418 3.50933L22.0148 10.95L29.7721 12.3953L22.9769 16.4065L27.9904 22.5L20.2066 21.205L20.1303 29.0954L15 23.1L9.8697 29.0954L9.79342 21.205L2.00962 22.5L7.02306 16.4065L0.227883 12.3953L7.98519 10.95L5.35819 3.50933L12.2296 7.38849L15 1.0198e-07Z" fill="#1C19C8"/>
<path d="M46.42 22V8H49.24L53.62 16.96L58 8H60.8V22H58.82V10.56L53.6 21L48.38 10.56V22H46.42ZM63.4066 22V11.82H65.4066V22H63.4066ZM64.4066 10.18C64.0732 10.18 63.7866 10.06 63.5466 9.82C63.3066 9.56667 63.1866 9.27333 63.1866 8.94C63.1866 8.59333 63.3066 8.30667 63.5466 8.08C63.7866 7.84 64.0732 7.72 64.4066 7.72C64.7532 7.72 65.0466 7.84 65.2866 8.08C65.5266 8.30667 65.6466 8.59333 65.6466 8.94C65.6466 9.27333 65.5266 9.56667 65.2866 9.82C65.0466 10.06 64.7532 10.18 64.4066 10.18ZM71.262 22.2C70.382 22.2 69.5554 22.0733 68.782 21.82C68.022 21.5533 67.362 21.18 66.802 20.7L67.902 19.38C68.422 19.7933 68.9554 20.1133 69.502 20.34C70.062 20.5533 70.6287 20.66 71.202 20.66C71.922 20.66 72.5087 20.52 72.962 20.24C73.4154 19.96 73.642 19.5933 73.642 19.14C73.642 18.7667 73.5087 18.4733 73.242 18.26C72.9754 18.0467 72.562 17.9 72.002 17.82L70.162 17.56C69.1487 17.4133 68.3887 17.1 67.882 16.62C67.3754 16.14 67.122 15.5 67.122 14.7C67.122 14.0867 67.2887 13.5533 67.622 13.1C67.9554 12.6333 68.422 12.2733 69.022 12.02C69.622 11.7533 70.322 11.62 71.122 11.62C71.8554 11.62 72.562 11.7267 73.242 11.94C73.922 12.1533 74.5754 12.4867 75.202 12.94L74.182 14.26C73.622 13.8867 73.0754 13.6133 72.542 13.44C72.022 13.2667 71.4954 13.18 70.962 13.18C70.3487 13.18 69.8554 13.3133 69.482 13.58C69.1087 13.8333 68.922 14.1667 68.922 14.58C68.922 14.9533 69.0487 15.2467 69.302 15.46C69.5687 15.66 70.002 15.8 70.602 15.88L72.442 16.14C73.4554 16.2867 74.222 16.6 74.742 17.08C75.262 17.5467 75.522 18.18 75.522 18.98C75.522 19.5933 75.3354 20.1467 74.962 20.64C74.5887 21.12 74.082 21.5 73.442 21.78C72.802 22.06 72.0754 22.2 71.262 22.2ZM81.9966 22.2C81.0099 22.2 80.1099 21.9667 79.2966 21.5C78.4966 21.0333 77.8632 20.4 77.3966 19.6C76.9299 18.8 76.6966 17.9067 76.6966 16.92C76.6966 15.9333 76.9299 15.04 77.3966 14.24C77.8632 13.44 78.4966 12.8067 79.2966 12.34C80.1099 11.86 81.0099 11.62 81.9966 11.62C82.9966 11.62 83.8966 11.86 84.6966 12.34C85.4966 12.8067 86.1299 13.44 86.5966 14.24C87.0632 15.04 87.2966 15.9333 87.2966 16.92C87.2966 17.9067 87.0632 18.8 86.5966 19.6C86.1299 20.4 85.4966 21.0333 84.6966 21.5C83.8966 21.9667 82.9966 22.2 81.9966 22.2ZM81.9966 20.44C82.6232 20.44 83.1899 20.2867 83.6966 19.98C84.2032 19.66 84.6032 19.2333 84.8966 18.7C85.1899 18.1667 85.3366 17.5667 85.3366 16.9C85.3366 16.2467 85.1832 15.66 84.8766 15.14C84.5832 14.6067 84.1832 14.18 83.6766 13.86C83.1832 13.54 82.6232 13.38 81.9966 13.38C81.3699 13.38 80.8032 13.54 80.2966 13.86C79.8032 14.18 79.4032 14.6067 79.0966 15.14C78.8032 15.66 78.6566 16.2467 78.6566 16.9C78.6566 17.5667 78.8032 18.1667 79.0966 18.7C79.3899 19.2333 79.7899 19.66 80.2966 19.98C80.8032 20.2867 81.3699 20.44 81.9966 20.44ZM98.3475 22.2C97.2275 22.2 96.1475 21.98 95.1075 21.54C94.0675 21.1 93.1475 20.48 92.3475 19.68L93.6275 18.2C94.3875 18.9467 95.1608 19.5 95.9475 19.86C96.7475 20.22 97.5808 20.4 98.4475 20.4C99.1275 20.4 99.7208 20.3067 100.228 20.12C100.748 19.92 101.148 19.64 101.428 19.28C101.708 18.92 101.848 18.5133 101.848 18.06C101.848 17.4333 101.628 16.9533 101.188 16.62C100.748 16.2867 100.021 16.0333 99.0075 15.86L96.6675 15.48C95.3875 15.2533 94.4275 14.84 93.7875 14.24C93.1608 13.64 92.8475 12.84 92.8475 11.84C92.8475 11.04 93.0608 10.34 93.4875 9.74C93.9142 9.12667 94.5142 8.65333 95.2875 8.32C96.0742 7.98667 96.9808 7.82 98.0075 7.82C99.0208 7.82 100.014 7.98667 100.988 8.32C101.974 8.64 102.861 9.10667 103.648 9.72L102.488 11.32C100.981 10.1733 99.4542 9.6 97.9075 9.6C97.2942 9.6 96.7608 9.68667 96.3075 9.86C95.8542 10.0333 95.5008 10.28 95.2475 10.6C94.9942 10.9067 94.8675 11.2667 94.8675 11.68C94.8675 12.2533 95.0608 12.6933 95.4475 13C95.8342 13.2933 96.4742 13.5067 97.3675 13.64L99.6275 14.02C101.108 14.26 102.194 14.6933 102.888 15.32C103.581 15.9467 103.928 16.8067 103.928 17.9C103.928 18.7533 103.694 19.5067 103.228 20.16C102.761 20.8 102.108 21.3 101.268 21.66C100.428 22.02 99.4542 22.2 98.3475 22.2ZM109.7 22.18C108.713 22.18 107.96 21.9533 107.44 21.5C106.92 21.0333 106.66 20.36 106.66 19.48V13.5H104.5V11.82H106.66V9.22L108.64 8.74V11.82H111.64V13.5H108.64V19.02C108.64 19.54 108.753 19.9133 108.98 20.14C109.22 20.3533 109.607 20.46 110.14 20.46C110.42 20.46 110.667 20.44 110.88 20.4C111.107 20.36 111.347 20.3 111.6 20.22V21.9C111.333 21.9933 111.02 22.06 110.66 22.1C110.313 22.1533 109.993 22.18 109.7 22.18ZM117.054 22.2C116.267 22.2 115.574 22.0333 114.974 21.7C114.374 21.3667 113.907 20.9 113.574 20.3C113.24 19.6867 113.074 18.9867 113.074 18.2V11.82H115.054V17.86C115.054 18.66 115.28 19.2933 115.734 19.76C116.2 20.2267 116.82 20.46 117.594 20.46C118.14 20.46 118.627 20.3467 119.054 20.12C119.48 19.88 119.827 19.5467 120.094 19.12V11.82H122.094V22H120.094V20.96C119.307 21.7867 118.294 22.2 117.054 22.2ZM129.141 22.16C128.195 22.16 127.328 21.9267 126.541 21.46C125.755 20.9933 125.135 20.3667 124.681 19.58C124.228 18.78 124.001 17.8867 124.001 16.9C124.001 15.9133 124.228 15.0267 124.681 14.24C125.148 13.4533 125.775 12.8267 126.561 12.36C127.348 11.8933 128.221 11.66 129.181 11.66C129.741 11.66 130.281 11.7467 130.801 11.92C131.321 12.0933 131.801 12.3467 132.241 12.68V8L134.241 7.62V22H132.261V21.02C131.395 21.78 130.355 22.16 129.141 22.16ZM129.401 20.42C129.988 20.42 130.521 20.3133 131.001 20.1C131.495 19.8867 131.908 19.58 132.241 19.18V14.6C131.908 14.2267 131.495 13.9333 131.001 13.72C130.521 13.4933 129.988 13.38 129.401 13.38C128.761 13.38 128.181 13.5333 127.661 13.84C127.141 14.1467 126.728 14.5667 126.421 15.1C126.115 15.62 125.961 16.2133 125.961 16.88C125.961 17.5467 126.115 18.1467 126.421 18.68C126.728 19.2133 127.141 19.64 127.661 19.96C128.181 20.2667 128.761 20.42 129.401 20.42ZM136.61 22V11.82H138.61V22H136.61ZM137.61 10.18C137.276 10.18 136.99 10.06 136.75 9.82C136.51 9.56667 136.39 9.27333 136.39 8.94C136.39 8.59333 136.51 8.30667 136.75 8.08C136.99 7.84 137.276 7.72 137.61 7.72C137.956 7.72 138.25 7.84 138.49 8.08C138.73 8.30667 138.85 8.59333 138.85 8.94C138.85 9.27333 138.73 9.56667 138.49 9.82C138.25 10.06 137.956 10.18 137.61 10.18ZM145.805 22.2C144.818 22.2 143.918 21.9667 143.105 21.5C142.305 21.0333 141.672 20.4 141.205 19.6C140.738 18.8 140.505 17.9067 140.505 16.92C140.505 15.9333 140.738 15.04 141.205 14.24C141.672 13.44 142.305 12.8067 143.105 12.34C143.918 11.86 144.818 11.62 145.805 11.62C146.805 11.62 147.705 11.86 148.505 12.34C149.305 12.8067 149.938 13.44 150.405 14.24C150.872 15.04 151.105 15.9333 151.105 16.92C151.105 17.9067 150.872 18.8 150.405 19.6C149.938 20.4 149.305 21.0333 148.505 21.5C147.705 21.9667 146.805 22.2 145.805 22.2ZM145.805 20.44C146.432 20.44 146.998 20.2867 147.505 19.98C148.012 19.66 148.412 19.2333 148.705 18.7C148.998 18.1667 149.145 17.5667 149.145 16.9C149.145 16.2467 148.992 15.66 148.685 15.14C148.392 14.6067 147.992 14.18 147.485 13.86C146.992 13.54 146.432 13.38 145.805 13.38C145.178 13.38 144.612 13.54 144.105 13.86C143.612 14.18 143.212 14.6067 142.905 15.14C142.612 15.66 142.465 16.2467 142.465 16.9C142.465 17.5667 142.612 18.1667 142.905 18.7C143.198 19.2333 143.598 19.66 144.105 19.98C144.612 20.2867 145.178 20.44 145.805 20.44Z" fill="#1C19C8"/>
</svg>
